HIERARCHY
ROOT pelvis
{
  OFFSET 0 100 0
  CHANNELS 6 Xposition Yposition Zposition Zrotation Xrotation Yrotation
  JOINT pelvis_right_femur
  {
    OFFSET -10.78128 -3.44521 -0.5502486
    CHANNELS 3 Zrotation Xrotation Yrotation
    JOINT right_femur_tibia
    {
      OFFSET -0.8047443 -44.0398 -0.1307829
      CHANNELS 3 Zrotation Xrotation Yrotation
      JOINT right_tibia_foot
      {
        OFFSET 3.006224 -47.83518 -5
        CHANNELS 3 Zrotation Xrotation Yrotation
        End Site
        {
          OFFSET 0 -5 15
        }
      }
    }
  }
  JOINT pelvis_left_femur
  {
    OFFSET 10.78128 -3.44521 -0.5502486
    CHANNELS 3 Zrotation Xrotation Yrotation
    JOINT left_femur_tibia
    {
      OFFSET 0.8047443 -44.0398 -0.1307829
      CHANNELS 3 Zrotation Xrotation Yrotation
      JOINT left_tibia_foot
      {
        OFFSET -4.370144 -48.10324 -4.275266
        CHANNELS 3 Zrotation Xrotation Yrotation
        End Site
        {
          OFFSET 0 -5 15
        }
      }
    }
  }
  JOINT pelvis_spine1
  {
    OFFSET 0 6.468898 -3.129235
    CHANNELS 3 Zrotation Xrotation Yrotation
    JOINT spine1
    {
      OFFSET 0 23.15396 4.99043
      CHANNELS 3 Zrotation Xrotation Yrotation
      JOINT spine2
      {
        OFFSET 0 20.79997 -5.064912
        CHANNELS 3 Zrotation Xrotation Yrotation
        JOINT neck
        {
          OFFSET 0 14.38658 9.616178
          CHANNELS 3 Zrotation Xrotation Yrotation
          End Site
          {
            OFFSET 0 20 0
          }
        }
      }
      JOINT right_manubrium
      {
        OFFSET -5.722621 16.35077 3.967754
        CHANNELS 3 Zrotation Xrotation Yrotation
        JOINT right_clavicle
        {
          OFFSET -13.16364 1.694482 -4.693211
          CHANNELS 3 Zrotation Xrotation Yrotation
          JOINT right_humerus
          {
            OFFSET -28.5034 -0.3100689 -2.792744
            CHANNELS 3 Zrotation Xrotation Yrotation
            JOINT right_radius
            {
              OFFSET -25.15693 0.02248979 -1.271978
              CHANNELS 3 Zrotation Xrotation Yrotation
              End Site
              {
                OFFSET -15 0 0
              }
            }
          }
        }
      }
      JOINT left_manubrium
      {
        OFFSET 5.722621 16.35077 3.967754
        CHANNELS 3 Zrotation Xrotation Yrotation
        JOINT left_clavicle
        {
          OFFSET 13.16364 1.694482 -4.693211
          CHANNELS 3 Zrotation Xrotation Yrotation
          JOINT left_humerus
          {
            OFFSET 29.39168 -1.063119 -2.237045
            CHANNELS 3 Zrotation Xrotation Yrotation
            JOINT left_radius
            {
              OFFSET 24.59957 -0.9528479 0.9047498
              CHANNELS 3 Zrotation Xrotation Yrotation
              End Site
              {
                OFFSET 15 -0 -0
              }
            }
          }
        }
      }
    }
  }
}
MOTION
Frames: 15
Frame Time: 0.0416666666667
0 103.5113 0 1.042272 -0.8249173 -0.006428344 3.439562 -17.31655 8.441321 -0 36.12197 -0 -5.182491 -15.89121 -3.674068 -6.944173 11.68573 -23.14046 -0 5.048961 -0 6.568635 -18.38332 25.48364 -2.246828 -2.905992 5.50905 2.391945 10.26561 -7.434711 1.559875 21.19373 6.40431 2.810288 -25.44623 9.555149 6.166675 -19.53116 10.94799 85.21455 36.26707 -18.52173 -0 0 15.29834 -6.863803 8.861814 4.018763 6.484353 -20.75556 -0.6366636 -93.93342 24.23491 23.00109 0 0 -15.26668 12.21196 15.73658 0.9147015
0.2653842 103.4495 1.577444 0.822272 -0.07425678 0.003901306 3.677983 -18.92913 8.672808 -0 35.27348 -0 -4.884646 -15.33437 -3.75832 -6.766856 11.62093 -22.99875 -0 4.783863 -0 4.903596 -19.63432 24.47876 -2.099265 -2.680386 5.128004 2.72243 10.0777 -7.691675 1.485125 20.92014 6.638343 2.990575 -25.8988 9.627111 6.203751 -19.11794 11.09417 85.59588 36.06051 -19.2682 -0 0 14.67759 -6.79899 9.089018 4.036189 6.638398 -20.85415 -0.6276685 -93.54749 23.95885 22.08309 0 0 -15.87106 12.26912 15.30439 0.6359369
0.5360542 103.2208 3.529334 0.5293136 1.043885 0.1299592 4.111665 -22.81846 7.653641 -0 30.93257 -0 -5.178875 -13.24383 -3.17715 -6.634267 12.00737 -21.84657 -0 4.693827 -0 4.780134 -21.00802 23.12192 -2.013535 -2.547197 4.881471 2.897292 9.95128 -7.857291 1.414967 20.77626 6.777844 3.154331 -26.03606 9.56765 6.269787 -18.78464 11.19078 85.80461 35.85213 -19.79844 -0 0 14.29499 -7.028563 9.348651 4.136799 6.757541 -20.93803 -0.667843 -93.41613 24.01196 21.56272 0 0 -16.11615 11.88896 15.10142 0.8720704
0.8152519 102.8527 5.79208 0.2755292 2.119466 0.3697424 4.517717 -26.08164 7.11638 -0 27.44018 -0 -5.265565 -11.65411 -2.797158 -6.528697 12.29607 -20.97606 -0 4.676319 -0 4.671298 -22.07321 22.03981 -1.91481 -2.421386 4.604915 3.11569 9.79809 -8.045578 1.36371 20.59356 6.92872 3.294529 -26.29579 9.58596 6.326868 -18.46967 11.27145 86.03339 35.6515 -20.36417 -0 0 13.89727 -7.042306 9.542474 4.14411 6.8958 -21.01184 -0.6699907 -93.23627 23.97567 20.97084 0 0 -16.4588 11.73737 14.90021 0.8793647
1.101028 102.3432 8.46539 -0.006049503 3.175399 0.7346776 5.015533 -29.38687 6.520113 -0 23.59013 -0 -5.44158 -9.815871 -2.332241 -6.442083 12.72041 -19.96185 -0 5.104228 -0 5.049431 -22.7909 21.10785 -1.815839 -2.287724 4.318298 3.334639 9.637522 -8.238556 1.302746 20.4084 7.083027 3.443817 -26.52814 9.580104 6.382948 -18.12999 11.35827 86.26032 35.43951 -20.93902 -0 0 13.47341 -7.13742 9.771033 4.20129 7.033891 -21.09082 -0.6850237 -93.03349 23.94471 20.35066 0 0 -16.81912 11.51444 14.67365 0.9498394
1.389077 101.722 11.61388 -0.3806465 4.121687 1.232346 5.655201 -32.40757 6.066209 -0 20.03331 -0 -5.697249 -7.851135 -1.915304 -6.289538 13.2405 -18.9225 -0 6.136771 -0 5.272893 -23.19646 20.14975 -1.719233 -2.148714 4.030307 3.553458 9.475664 -8.43083 1.236973 20.21879 7.241008 3.59018 -26.75036 9.569852 6.426371 -17.78672 11.44832 86.4858 35.24088 -21.49498 -0 0 13.02686 -7.271948 10.00991 4.297792 7.166701 -21.1739 -0.7046293 -92.7777 23.86736 19.69065 0 0 -17.23407 11.31092 14.40292 0.9951989
1.672951 101.0446 15.31502 -0.8972386 4.829079 1.859948 6.491396 -34.8517 5.760819 -0 17.08461 -0 -6.12419 -5.763987 -1.564913 -6.009861 13.8591 -17.84261 -0 8.103989 -0 5.057766 -23.12474 19.02731 -1.629044 -1.995345 3.745677 3.758894 9.323805 -8.618936 1.15667 20.03559 7.400386 3.74234 -26.91135 9.520795 6.456123 -17.42317 11.55047 86.71404 35.04818 -22.0294 -0 0 12.53926 -7.551387 10.29261 4.487897 7.284611 -21.27036 -0.7500039 -92.45717 23.75728 18.98537 0 0 -17.69691 11.03636 14.06467 1.103378
1.947029 100.4039 19.64402 -1.584023 5.175866 2.589987 7.529594 -36.31557 5.603915 -0 15.09658 -0 -6.780184 -3.70787 -1.325124 -5.53053 14.51705 -16.7129 -0 11.37483 -0 3.986337 -22.37467 17.50504 -1.553102 -1.832723 3.485425 3.93085 9.201238 -8.790106 1.063933 19.87586 7.54806 3.891748 -26.97567 9.420766 6.467947 -17.05639 11.6612 86.93807 34.86591 -22.50945 -0 0 12.02982 -8.005972 10.61299 4.783956 7.373502 -21.37991 -0.8304535 -92.07972 23.62103 18.27126 0 0 -18.18079 10.67176 13.66642 1.30552
2.212354 99.94092 24.64326 -2.403189 5.076193 3.346089 8.671223 -36.25896 5.562009 -0 14.39115 -0 -7.638726 -2.045183 -1.242823 -4.813101 15.01223 -15.53024 -0 16.34687 -0 1.785162 -20.63383 15.41665 -1.500295 -1.667655 3.27674 4.04356 9.13126 -8.926913 0.9627862 19.76597 7.661209 4.026986 -26.89717 9.249372 6.462163 -16.70789 11.77438 87.14181 34.68521 -22.89462 -0 0 11.53674 -8.669801 10.96145 5.1934 7.411535 -21.49309 -0.9589272 -91.68536 23.49666 17.62588 0 0 -18.60614 10.15949 13.24122 1.679708
2.48325 99.83895 30.27792 -3.216792 4.55449 3.989711 9.67265 -34.21121 5.559534 -0 15.02313 -0 -8.536006 -1.297622 -1.348822 -3.904561 14.91642 -14.27713 -0 23.32905 -0 -1.38646 -17.58662 12.83938 -1.482192 -1.512528 3.158846 4.068528 9.137959 -9.00132 0.8636118 19.73987 7.710096 4.127846 -26.64573 8.999533 6.439442 -16.42247 11.87849 87.28807 34.50616 -23.10934 -0 0 11.13428 -9.525186 11.30072 5.695799 7.368792 -21.58333 -1.138041 -91.34482 23.43075 17.17489 0 0 -18.84974 9.475376 12.84657 2.278806
2.786965 100.2708 36.39051 -3.775193 3.75348 4.341832 10.18798 -30.12955 5.507434 -0 16.48417 -0 -9.196435 -1.895408 -1.605348 -3.00173 13.58802 -12.92058 -0 32.27716 -0 -4.632872 -13.25862 10.29457 -1.510939 -1.377685 3.169873 3.983948 9.234831 -8.981726 0.7763204 19.82686 7.674731 4.177565 -26.21634 8.679221 6.397963 -16.25156 11.96445 87.32564 34.34656 -23.05718 -0 0 10.90515 -10.52508 11.58276 6.262545 7.218133 -21.61691 -1.358675 -91.12384 23.45582 17.03446 0 0 -18.80505 8.636346 12.52567 3.107443
3.144018 101.2958 42.70607 -3.792958 2.775216 4.256113 9.946626 -24.63614 5.328454 -0 17.64458 -0 -9.419363 -3.719318 -1.875824 -2.418309 10.4508 -11.47359 -0 42.50327 -0 -6.655968 -8.495815 8.609141 -1.594396 -1.266236 3.33234 3.781711 9.419205 -8.846314 0.703913 20.02878 7.565208 4.175621 -25.63181 8.314993 6.325168 -16.23342 12.03214 87.21525 34.24497 -22.65529 -0 0 10.89831 -11.63143 11.77488 6.884077 6.957774 -21.58 -1.600167 -91.0169 23.53884 17.21553 0 0 -18.49136 7.733183 12.24678 4.071587
3.537736 102.7782 48.9123 -3.128486 1.498996 3.725934 8.955369 -18.60634 4.956018 -0 17.40258 -0 -9.277008 -5.957942 -2.02481 -2.366755 5.404911 -10.11704 -0 52.50253 -0 -6.883271 -4.840398 8.417006 -1.727213 -1.171835 3.643267 3.468995 9.675255 -8.595211 0.6414544 20.31052 7.415493 4.138493 -24.92654 7.935516 6.200659 -16.3732 12.08951 86.95009 34.21876 -21.88091 -0 0 11.11171 -12.85597 11.88517 7.584519 6.618238 -21.4867 -1.84094 -90.94646 23.58762 17.61445 0 0 -18.04264 6.881648 11.90603 5.02931
3.913575 104.418 54.77006 -1.947466 -0.2088607 2.949744 7.544831 -12.48947 4.403565 -0 15.59177 -0 -8.993191 -7.722759 -2.036281 -2.696146 -1.060807 -9.078555 -0 60.05966 -0 -6.060959 -3.392944 9.741434 -1.892194 -1.087832 4.083035 3.062693 9.974374 -8.241013 0.5848873 20.62814 7.249712 4.081216 -24.13754 7.55653 6.012277 -16.65646 12.14002 86.53114 34.23175 -20.75994 -0 0 11.54355 -14.21574 11.93686 8.383252 6.234962 -21.34074 -2.064218 -90.87216 23.55192 18.15631 0 0 -17.54008 6.122697 11.43639 5.918977
4.222899 105.8615 60.20676 -0.6653128 -2.109286 2.208764 6.205811 -6.424664 3.873499 -0 13.0219 -0 -8.555438 -8.75371 -1.968763 -2.858758 -8.060901 -8.21421 -0 62.87773 -0 -5.248382 -3.842363 11.972 -2.074711 -1.015463 4.628764 2.583588 10.2731 -7.792822 0.5348886 20.95733 7.071663 4.00868 -23.30412 7.183329 5.765469 -17.07133 12.17733 85.92987 34.22623 -19.31174 -0 0 12.22805 -15.68496 11.93472 9.269285 5.826389 -21.11313 -2.25409 -90.84078 23.47602 18.86618 0 0 -16.94618 5.404809 10.86323 6.789362
